<svg width="16" height="16" viewBox="0 0 16 16" fill="none" xmlns="http://www.w3.org/2000/svg">
<path d="M5.58666 10.6631C6.28885 10.6631 6.79333 10.2541 6.79333 9.40876V6.3205C6.79333 5.48879 7.25009 4.90932 8.06136 4.90932C8.85898 4.90932 9.27484 5.42743 9.27484 6.26597V9.40876C9.27484 10.2541 9.77251 10.6631 10.4815 10.6631C11.1905 10.6631 11.6882 10.2541 11.6882 9.40876V5.74103C11.6882 3.98898 10.7678 2.93911 9.11123 2.93911C7.97955 2.93911 7.16828 3.48449 6.78651 4.47982H6.73879V1.74607C6.73879 0.962078 6.3093 0.512134 5.55939 0.512134C4.80949 0.512134 4.37318 0.962078 4.37318 1.73925V9.40876C4.37318 10.2541 4.87766 10.6631 5.58666 10.6631Z" fill="#F2F2F2"/>
<path fill-rule="evenodd" clip-rule="evenodd" d="M2.60603 10.5064C2.82175 13.2967 5.1543 15.4938 7.99999 15.4938C10.8457 15.4938 13.1782 13.2967 13.3939 10.5064H11.6409C11.4312 12.3313 9.8811 13.7485 7.99999 13.7485C6.11888 13.7485 4.56877 12.3313 4.35912 10.5064H2.60603Z" fill="#F2F2F2"/>
</svg>
